<?xml version="1.0" encoding="utf-8"?>
<!-- Generator: Adobe Illustrator 18.1.1, SVG Export Plug-In . SVG Version: 6.00 Build 0)  -->
<svg version="1.1" id="Lag_1" xmlns="http://www.w3.org/2000/svg" xmlns:xlink="http://www.w3.org/1999/xlink" x="0px" y="0px"
	 viewBox="0 0 500 500" enable-background="new 0 0 500 500" xml:space="preserve">
<path fill="#FFFFFF" d="M338.1,267.5c10.6-4.4,16.1-12.3,17.1-23.6c1-14.4,0.3-28.8,0.7-43.1c0-9.9,3.8-18.5,9.6-26
	c3.1-4.1,8.2-5.8,13.3-6.5c0.7,0,1.7,0.3,2.1-0.7c2.1,0,4.4,0,6.5,0c1.4,2.1,5.1,0,5.8,3.4c-0.3,0-0.7,0-0.7,0.3
	c-10.6,4.8-13.3,15.4-18.1,24.6c-1,2.1-1,4.4-1,6.8c0,12,0,24,0,35.9c0,24.3-13,40.7-34.9,47.6v-18.8H338.1z"/>
<path fill="#898480" d="M338.1,71.7c10.6,4.4,16.1,12.3,17.1,23.6c1,14.4,0.3,28.8,0.7,43.1c0,9.9,3.8,18.5,9.6,26
	c3.1,4.1,8.2,5.8,13.3,6.5c0.7,0,1.7-0.3,2.1,0.7c2.1,0,4.4,0,6.5,0c1.4-2.1,5.1,0,5.8-3.4c-0.3,0-0.7,0-0.7-0.3
	c-10.6-4.8-13.3-15.4-18.1-24.6c-1-2.1-1-4.4-1-6.8c0-12,0-24,0-35.9c0-24.3-13-40.7-34.9-47.6v18.8H338.1z"/>
</svg>
