<?xml version="1.0" encoding="utf-8"?>
<!-- Generator: Adobe Illustrator 18.1.1, SVG Export Plug-In . SVG Version: 6.00 Build 0)  -->
<svg version="1.1" xmlns="http://www.w3.org/2000/svg" xmlns:xlink="http://www.w3.org/1999/xlink" x="0px" y="0px"
	 viewBox="0 0 500 500" enable-background="new 0 0 500 500" xml:space="preserve">
<g id="Lag_1" display="none">
	<g display="inline">
		<polygon fill-rule="evenodd" clip-rule="evenodd" fill="#898480" points="180.5,54.4 205.6,54.4 264.1,170.9 239,170.9 		"/>
		<polygon fill-rule="evenodd" clip-rule="evenodd" fill="#898480" points="239.1,170.9 264.2,170.9 322.7,287.4 297.6,287.4 		"/>
		<polygon fill-rule="evenodd" clip-rule="evenodd" fill="#FFFFFF" points="322.7,54.4 297.6,54.4 239.1,170.9 264.2,170.9 		"/>
		<polygon fill-rule="evenodd" clip-rule="evenodd" fill="#FFFFFF" points="264.1,170.9 239,170.9 180.5,287.4 205.6,287.4 		"/>
		<path fill-rule="evenodd" clip-rule="evenodd" fill="#FFFFFF" d="M163.3,72.1C152.7,76.6,147,84.6,146,96
			c-1.2,14.5-0.3,29.1-0.5,43.6c-0.1,9.9-3.9,18.5-9.6,26.2c-3.1,4.2-8.2,5.7-13.3,6.7c-0.7,0.1-1.7-0.3-2.1,0.8c-2.2,0-4.4,0-6.6,0
			c-1.5-2-5.1-0.1-5.8-3.3c0.3-0.1,0.5-0.1,0.8-0.2c10.7-4.8,13.6-15.5,18.2-24.7c1-2.1,1.1-4.5,1.1-6.9c-0.1-12.1-0.1-24.1,0-36.2
			c0.1-24.6,13.2-41,35.1-48V72.1z"/>
		<path fill-rule="evenodd" clip-rule="evenodd" fill="#898480" d="M163.3,269.3c-10.6-4.5-16.3-12.5-17.2-24
			c-1.2-14.5-0.3-29.1-0.5-43.6c-0.1-9.9-3.9-18.5-9.6-26.2c-3.1-4.2-8.2-5.7-13.3-6.7c-0.7-0.1-1.7,0.3-2.1-0.8c-2.2,0-4.4,0-6.6,0
			c-1.5,2-5.1,0.1-5.8,3.3c0.3,0.1,0.5,0.1,0.8,0.2c10.7,4.8,13.6,15.5,18.2,24.7c1,2.1,1.1,4.5,1.1,6.9c-0.1,12.1-0.1,24.1,0,36.2
			c0.1,24.6,13.2,41,35.1,48V269.3z"/>
		<path fill-rule="evenodd" clip-rule="evenodd" fill="#FFFFFF" d="M339.9,269.2c10.6-4.5,16.3-12.5,17.2-23.9
			c1.2-14.5,0.3-29,0.5-43.5c0.1-9.8,3.9-18.5,9.6-26.1c3.1-4.1,8.2-5.7,13.3-6.7c0.7-0.1,1.7,0.3,2.1-0.8c2.2,0,4.4,0,6.6,0
			c1.5,2,5.1,0.1,5.8,3.3c-0.3,0.1-0.5,0.1-0.8,0.2c-10.7,4.8-13.6,15.4-18.2,24.7c-1,2.1-1.1,4.5-1.1,6.8c0.1,12,0.1,24.1,0,36.1
			c-0.1,24.5-13.2,40.9-35.1,47.9V269.2z"/>
		<path fill-rule="evenodd" clip-rule="evenodd" fill="#898480" d="M339.9,72.4c10.6,4.5,16.3,12.5,17.2,23.9
			c1.2,14.5,0.3,29,0.5,43.5c0.1,9.8,3.9,18.5,9.6,26.1c3.1,4.1,8.2,5.7,13.3,6.7c0.7,0.1,1.7-0.3,2.1,0.8c2.2,0,4.4,0,6.6,0
			c1.5-2,5.1-0.1,5.8-3.3c-0.3-0.1-0.5-0.1-0.8-0.2c-10.7-4.8-13.6-15.4-18.2-24.7c-1-2.1-1.1-4.5-1.1-6.8c0.1-12,0.1-24.1,0-36.1
			c-0.1-24.5-13.2-40.9-35.1-47.9V72.4z"/>
		<g>
			<path fill="#FFFFFF" d="M66.2,442.8h-2.6v-3.5c-2.2,2.6-4.9,4-8.1,4c-2.9,0-5.4-1-7.3-3.1c-2-2.1-3-4.6-3-7.5c0-2.9,1-5.4,3-7.4
				c2-2.1,4.5-3.1,7.4-3.1c3.3,0,6,1.4,8,4.2v-11.5h2.6V442.8z M63.8,432.8c0-2.3-0.8-4.2-2.3-5.8c-1.5-1.6-3.4-2.4-5.7-2.4
				c-3.1,0-5.4,1.3-6.9,4c-0.7,1.3-1.1,2.6-1.1,4.1c0,1.4,0.4,2.8,1.1,4.1c0.7,1.3,1.7,2.3,2.9,3c1.2,0.7,2.5,1.1,3.9,1.1
				c1.4,0,2.8-0.4,4-1.1c1.3-0.7,2.2-1.7,2.9-2.9C63.4,435.7,63.8,434.3,63.8,432.8z"/>
			<path fill="#FFFFFF" d="M108.5,432.9H90.4c0.1,2.3,0.8,4.1,2.1,5.6c1.4,1.6,3.2,2.4,5.5,2.4c2.1,0,4-0.6,5.4-1.9
				c0.7-0.6,1.4-1.5,2.2-2.9l2.2,1.1c-1.4,2.6-3.2,4.4-5.6,5.4c-1.2,0.5-2.5,0.7-4,0.7c-3,0-5.5-1-7.5-3c-2-2-3-4.5-3-7.5
				c0-2.5,0.8-4.8,2.3-6.8c2-2.5,4.6-3.8,8-3.8c3.4,0,6.2,1.3,8.2,3.9C107.7,427.9,108.5,430.2,108.5,432.9z M105.6,430.7
				c-0.6-2.5-2-4.3-4.1-5.3c-1.1-0.5-2.2-0.8-3.4-0.8c-2,0-3.7,0.6-5.1,1.9c-1,0.9-1.8,2.3-2.3,4.1H105.6z"/>
			<path fill="#FFFFFF" d="M147,422.7l-9.2,20.1h-0.5l-9.3-20.1h2.8l6.7,14.6l6.7-14.6H147z"/>
			<path fill="#FFFFFF" d="M187.4,432.9h-18.1c0,2.3,0.7,4.1,2.1,5.6c1.4,1.6,3.2,2.4,5.5,2.4c2.1,0,4-0.6,5.4-1.9
				c0.7-0.6,1.4-1.5,2.2-2.9l2.2,1.1c-1.4,2.6-3.2,4.4-5.6,5.4c-1.2,0.5-2.5,0.7-4,0.7c-3,0-5.5-1-7.5-3c-2-2-3-4.5-3-7.5
				c0-2.5,0.8-4.8,2.3-6.8c2-2.5,4.6-3.8,8-3.8c3.4,0,6.2,1.3,8.2,3.9C186.6,427.9,187.3,430.2,187.4,432.9z M184.5,430.7
				c-0.6-2.5-2-4.3-4.1-5.3c-1.1-0.5-2.2-0.8-3.4-0.8c-2,0-3.7,0.6-5.1,1.9c-1,0.9-1.8,2.3-2.3,4.1H184.5z"/>
			<path fill="#FFFFFF" d="M211.1,442.8h-2.6v-27.9h2.6V442.8z"/>
			<path fill="#FFFFFF" d="M253,432.8c0,3-1,5.5-3,7.5c-2,2-4.5,3-7.4,3c-3,0-5.4-1-7.5-3c-2-2-3-4.5-3-7.5c0-2.8,0.9-5.2,2.8-7.2
				c2-2.3,4.6-3.4,7.7-3.4c3.1,0,5.7,1.1,7.7,3.4C252.1,427.5,253,430,253,432.8z M250.4,432.8c0-2.2-0.8-4.1-2.3-5.7
				c-1.5-1.6-3.4-2.4-5.6-2.4c-2.2,0-4.1,0.8-5.6,2.4c-1.5,1.6-2.3,3.5-2.3,5.7c0,1.4,0.3,2.8,1,4c0.7,1.3,1.7,2.3,2.9,3
				c1.2,0.7,2.5,1,3.9,1c3,0,5.3-1.3,6.8-3.9C250.1,435.6,250.4,434.3,250.4,432.8z"/>
			<path fill="#FFFFFF" d="M295.5,432.7c0,2.9-1,5.4-3,7.5c-2,2.1-4.4,3.1-7.3,3.1c-3.2,0-5.9-1.3-8-4v10.8h-2.6v-27.5h2.6v3.7
				c2-2.8,4.7-4.2,8-4.2c2.9,0,5.3,1,7.4,3.1C294.5,427.3,295.5,429.8,295.5,432.7z M292.9,432.7c0-1.4-0.4-2.8-1.1-4.1
				c-0.7-1.3-1.7-2.3-2.9-3c-1.2-0.7-2.6-1.1-4-1.1c-2.3,0-4.2,0.8-5.7,2.4c-1.5,1.6-2.3,3.5-2.3,5.8c0,3.2,1.3,5.5,4,7
				c1.3,0.7,2.6,1.1,4,1.1c1.4,0,2.8-0.4,4-1.1c1.2-0.7,2.1-1.7,2.9-3C292.5,435.5,292.9,434.2,292.9,432.7z"/>
			<path fill="#FFFFFF" d="M347.1,442.8h-2.7v-11c0-1.7-0.1-2.9-0.2-3.5c-0.3-1.3-0.9-2.2-1.8-2.9c-0.7-0.5-1.6-0.7-2.7-0.7
				c-1.3,0-2.4,0.4-3.5,1.1c-1,0.7-1.8,1.7-2.3,3c-0.5,1.2-0.7,3.3-0.7,6.2v7.9h-2.6v-10.3c0-1.9-0.1-3.2-0.2-3.8
				c-0.3-1.5-0.9-2.5-1.8-3.2c-0.7-0.5-1.6-0.8-2.7-0.8c-1.2,0-2.4,0.4-3.4,1.1c-1,0.7-1.7,1.7-2.2,2.9c-0.5,1.2-0.8,3.1-0.8,5.6
				v8.5H317v-20.1h2.6v3.5c1.9-2.7,4.2-4,6.9-4c2.1,0,3.7,0.7,4.9,2.1c0.6,0.6,1,1.6,1.4,2.7c1.8-3.2,4.2-4.8,7.4-4.8
				c3,0,5,1.3,6.1,4c0.5,1.3,0.8,3.1,0.8,5.7V442.8z"/>
			<path fill="#FFFFFF" d="M388.9,432.9h-18.1c0,2.3,0.7,4.1,2.1,5.6c1.4,1.6,3.2,2.4,5.5,2.4c2.1,0,4-0.6,5.4-1.9
				c0.7-0.6,1.4-1.5,2.2-2.9l2.2,1.1c-1.4,2.6-3.2,4.4-5.6,5.4c-1.2,0.5-2.5,0.7-4,0.7c-3,0-5.5-1-7.5-3c-2-2-3-4.5-3-7.5
				c0-2.5,0.8-4.8,2.3-6.8c2-2.5,4.6-3.8,8-3.8c3.4,0,6.2,1.3,8.2,3.9C388.1,427.9,388.9,430.2,388.9,432.9z M386.1,430.7
				c-0.6-2.5-2-4.3-4.1-5.3c-1.1-0.5-2.2-0.8-3.4-0.8c-2,0-3.7,0.6-5.1,1.9c-1,0.9-1.8,2.3-2.3,4.1H386.1z"/>
			<path fill="#FFFFFF" d="M427.9,442.8h-2.6v-9.6c0-2.3-0.1-3.8-0.3-4.6c-0.6-2.7-2.3-4-5.1-4c-1.6,0-3,0.5-4.2,1.5
				c-1.2,1-2,2.3-2.4,3.8c-0.2,1-0.4,2.8-0.4,5.5v7.4h-2.6v-20.1h2.6v3.6c2.1-2.7,4.6-4.1,7.5-4.1c1.5,0,2.8,0.4,4,1.1
				c1.2,0.7,2,1.8,2.6,3.1c0.6,1.3,0.8,3.3,0.8,6.1V442.8z"/>
			<path fill="#FFFFFF" d="M459.1,424.9H455v17.9h-2.6v-17.9h-3.5v-2.2h3.5v-7.5h2.6v7.5h4.1V424.9z"/>
		</g>
		<g>
			<path fill="#FFFFFF" d="M96.9,395.4h-9.1l-17.9-24.6l-17.6,24.6h-9l22.2-30.7l-20.1-27.8h9l15.5,21.7l15.5-21.7h9l-20,27.8
				L96.9,395.4z"/>
			<path fill="#FFFFFF" d="M163,366.4c0,8.6-2.9,15.9-8.8,21.7c-5.8,5.9-13.1,8.8-21.7,8.8c-8.6,0-15.8-2.9-21.7-8.8
				c-5.9-5.9-8.8-13.1-8.8-21.8c0-8.1,2.7-15.1,8.1-21.1c5.9-6.6,13.4-9.8,22.4-9.8c9,0,16.5,3.3,22.4,9.8
				C160.3,351.2,163,358.2,163,366.4z M155.3,366.5c0-6.4-2.2-12-6.6-16.7c-4.4-4.7-9.8-7-16.2-7c-6.4,0-11.8,2.3-16.2,7
				c-4.4,4.7-6.6,10.2-6.6,16.7c0,4.1,1,8,3,11.6c2,3.7,4.8,6.6,8.3,8.6s7.3,3,11.5,3c8.9,0,15.4-3.8,19.7-11.4
				C154.3,374.7,155.3,370.7,155.3,366.5z"/>
			<path fill="#FFFFFF" d="M264.6,395.4h-7.7v-31.9c0-4.9-0.2-8.3-0.6-10.3c-0.8-3.7-2.5-6.5-5.3-8.3c-2.2-1.4-4.8-2.1-7.8-2.1
				c-3.7,0-7.1,1.1-10.1,3.2c-3,2.2-5.2,5-6.6,8.6c-1.4,3.6-2.1,9.5-2.1,17.9v22.9h-7.5v-29.9c0-5.5-0.2-9.2-0.5-11.2
				c-0.8-4.2-2.5-7.3-5.4-9.3c-2.2-1.5-4.8-2.3-7.8-2.3c-3.6,0-7,1.1-10,3.3c-2.9,2.1-5.1,4.9-6.5,8.3c-1.5,3.5-2.2,9-2.2,16.3v24.8
				h-7.5v-58.5h7.5v10.1c5.5-7.7,12.1-11.6,20.1-11.6c6,0,10.8,2,14.3,6.1c1.6,1.9,3,4.5,4.2,8c5.1-9.4,12.3-14,21.6-14
				c8.6,0,14.5,3.9,17.7,11.6c1.5,3.7,2.3,9.1,2.3,16.5V395.4z"/>
			<path fill="#FFFFFF" d="M341.7,366.3c0,8.5-2.9,15.7-8.8,21.7c-5.9,6-13,9-21.4,9c-9.5,0-17.3-4.1-23.2-12.3v10.8h-7.5v-81.1h7.5
				V347c6.3-7.7,14.1-11.6,23.4-11.6c8.5,0,15.6,3,21.3,9.1C338.8,350.5,341.7,357.8,341.7,366.3z M334,366.1
				c0-4.1-1.1-8.1-3.2-11.9c-2.1-3.8-4.9-6.7-8.5-8.8c-3.6-2.1-7.4-3.1-11.4-3.1c-4.1,0-8,1-11.7,3.1c-3.7,2.1-6.5,4.9-8.5,8.4
				c-2,3.5-3,7.5-3,12c0,6.7,2.2,12.3,6.6,16.9c4.4,4.6,9.9,6.9,16.5,6.9c8.9,0,15.6-3.9,20.1-11.7C333,374.2,334,370.2,334,366.1z"
				/>
			<path fill="#FFFFFF" d="M413.6,395.4h-7.5v-10.1c-6.3,7.7-14.2,11.6-23.5,11.6c-8.5,0-15.6-3-21.4-9.1c-5.7-6-8.6-13.2-8.6-21.8
				c0-8.4,2.9-15.6,8.8-21.6c5.9-6,13-9,21.4-9c9.6,0,17.4,4.1,23.3,12.3v-10.8h7.5V395.4z M406.7,366.5c0-6.7-2.2-12.3-6.6-16.9
				c-4.4-4.6-9.9-6.9-16.5-6.9c-8.9,0-15.6,3.9-20,11.7c-2.1,3.7-3.2,7.7-3.2,11.8s1.1,8.1,3.2,11.8c2.1,3.7,4.9,6.7,8.5,8.7
				c3.6,2.1,7.4,3.1,11.5,3.1c4.1,0,8-1,11.7-3.1c3.7-2.1,6.5-4.9,8.5-8.4C405.7,374.9,406.7,371,406.7,366.5z"/>
			<path fill="#FFFFFF" d="M456.7,343.5h-11.9v52h-7.6v-52h-10.3v-6.5h10.3v-21.7h7.6v21.7h11.9V343.5z"/>
		</g>
	</g>
</g>
<g id="Lag_3">
	<polygon fill-rule="evenodd" clip-rule="evenodd" points="147.2,81.9 183.5,81.9 268.1,250.3 231.7,250.3 	"/>
	<polygon fill-rule="evenodd" clip-rule="evenodd" points="231.9,250.3 268.3,250.3 352.8,418.7 316.5,418.7 	"/>
	<polygon fill-rule="evenodd" clip-rule="evenodd" fill="#898480" points="352.8,81.9 316.5,81.9 231.9,250.3 268.3,250.3 	"/>
	<polygon fill-rule="evenodd" clip-rule="evenodd" fill="#898480" points="268.1,250.3 231.7,250.3 147.2,418.7 183.5,418.7 	"/>
	<path fill-rule="evenodd" clip-rule="evenodd" fill="#898480" d="M122.3,107.4c-15.3,6.5-23.6,18.1-24.9,34.6
		c-1.7,21-0.5,42-0.8,63.1c-0.2,14.3-5.6,26.8-13.8,37.9c-4.5,6-11.9,8.3-19.2,9.7c-1.1,0.2-2.5-0.5-3,1.1c-3.2,0-6.4,0-9.6,0
		c-2.1-2.8-7.4-0.2-8.5-4.8c0.4-0.1,0.8-0.2,1.1-0.3c15.5-6.9,19.6-22.3,26.3-35.8c1.5-3,1.6-6.5,1.6-9.9c-0.1-17.5-0.1-34.9,0-52.4
		c0.2-35.5,19.1-59.3,50.8-69.4V107.4z"/>
	<path fill-rule="evenodd" clip-rule="evenodd" d="M122.3,392.6c-15.3-6.5-23.6-18.1-24.9-34.6c-1.7-21-0.5-42-0.8-63.1
		c-0.2-14.3-5.6-26.8-13.8-37.9c-4.5-6-11.9-8.3-19.2-9.7c-1.1-0.2-2.5,0.5-3-1.1c-3.2,0-6.4,0-9.6,0c-2.1,2.8-7.4,0.2-8.5,4.8
		c0.4,0.1,0.8,0.2,1.1,0.3c15.5,6.9,19.6,22.3,26.3,35.8c1.5,3,1.6,6.5,1.6,9.9c-0.1,17.5-0.1,34.9,0,52.4
		c0.2,35.5,19.1,59.3,50.8,69.4V392.6z"/>
	<path fill-rule="evenodd" clip-rule="evenodd" fill="#898480" d="M377.7,392.4c15.3-6.5,23.6-18.1,24.9-34.6
		c1.7-20.9,0.5-41.9,0.8-62.9c0.2-14.2,5.6-26.7,13.8-37.8c4.5-6,11.9-8.2,19.2-9.7c1.1-0.2,2.5,0.5,3-1.1c3.2,0,6.4,0,9.6,0
		c2.1,2.8,7.4,0.2,8.5,4.8c-0.4,0.1-0.8,0.2-1.1,0.3c-15.5,6.9-19.6,22.3-26.3,35.7c-1.5,3-1.6,6.5-1.6,9.9
		c0.1,17.4,0.1,34.8,0,52.3c-0.2,35.5-19.1,59.1-50.8,69.3V392.4z"/>
	<path fill-rule="evenodd" clip-rule="evenodd" d="M377.7,107.9c15.3,6.5,23.6,18.1,24.9,34.6c1.7,20.9,0.5,41.9,0.8,62.9
		c0.2,14.2,5.6,26.7,13.8,37.8c4.5,6,11.9,8.2,19.2,9.7c1.1,0.2,2.5-0.5,3,1.1c3.2,0,6.4,0,9.6,0c2.1-2.8,7.4-0.2,8.5-4.8
		c-0.4-0.1-0.8-0.2-1.1-0.3c-15.5-6.9-19.6-22.3-26.3-35.7c-1.5-3-1.6-6.5-1.6-9.9c0.1-17.4,0.1-34.8,0-52.3
		c-0.2-35.5-19.1-59.1-50.8-69.3V107.9z"/>
</g>
<g id="Lag_2" display="none">
	<g display="inline">
		<polygon fill-rule="evenodd" clip-rule="evenodd" points="180.9,55.6 205.6,55.6 262.9,169.7 238.2,169.7 		"/>
		<polygon fill-rule="evenodd" clip-rule="evenodd" points="238.3,169.7 263,169.7 320.3,283.8 295.6,283.8 		"/>
		<polygon fill-rule="evenodd" clip-rule="evenodd" fill="#898480" points="320.3,55.6 295.6,55.6 238.3,169.7 263,169.7 		"/>
		<polygon fill-rule="evenodd" clip-rule="evenodd" fill="#898480" points="262.9,169.7 238.2,169.7 180.9,283.8 205.6,283.8 		"/>
		<path fill-rule="evenodd" clip-rule="evenodd" fill="#898480" d="M164.1,72.9c-10.4,4.4-16,12.3-16.9,23.5
			c-1.2,14.2-0.3,28.5-0.5,42.7c-0.1,9.7-3.8,18.1-9.4,25.7c-3,4.1-8.1,5.6-13,6.6c-0.7,0.1-1.7-0.3-2,0.8c-2.2,0-4.3,0-6.5,0
			c-1.4-1.9-5-0.1-5.7-3.3c0.3-0.1,0.5-0.1,0.8-0.2c10.5-4.7,13.3-15.1,17.8-24.2c1-2,1.1-4.4,1.1-6.7c-0.1-11.8-0.1-23.7,0-35.5
			c0.1-24.1,12.9-40.2,34.4-47V72.9z"/>
		<path fill-rule="evenodd" clip-rule="evenodd" d="M164.1,266.1c-10.4-4.4-16-12.3-16.9-23.5c-1.2-14.2-0.3-28.5-0.5-42.7
			c-0.1-9.7-3.8-18.1-9.4-25.7c-3-4.1-8.1-5.6-13-6.6c-0.7-0.1-1.7,0.3-2-0.8c-2.2,0-4.3,0-6.5,0c-1.4,1.9-5,0.1-5.7,3.3
			c0.3,0.1,0.5,0.1,0.8,0.2c10.5,4.7,13.3,15.1,17.8,24.2c1,2,1.1,4.4,1.1,6.7c-0.1,11.8-0.1,23.7,0,35.5
			c0.1,24.1,12.9,40.2,34.4,47V266.1z"/>
		<path fill-rule="evenodd" clip-rule="evenodd" fill="#898480" d="M337.1,266c10.4-4.4,16-12.3,16.9-23.4
			c1.2-14.2,0.3-28.4,0.5-42.6c0.1-9.6,3.8-18.1,9.4-25.6c3-4.1,8.1-5.6,13-6.6c0.7-0.1,1.7,0.3,2-0.8c2.2,0,4.3,0,6.5,0
			c1.4,1.9,5,0.1,5.7,3.2c-0.3,0.1-0.5,0.1-0.8,0.2c-10.5,4.7-13.3,15.1-17.8,24.2c-1,2-1.1,4.4-1.1,6.7c0.1,11.8,0.1,23.6,0,35.4
			c-0.1,24-12.9,40.1-34.4,46.9V266z"/>
		<path fill-rule="evenodd" clip-rule="evenodd" d="M337.1,73.2c10.4,4.4,16,12.3,16.9,23.4c1.2,14.2,0.3,28.4,0.5,42.6
			c0.1,9.6,3.8,18.1,9.4,25.6c3,4.1,8.1,5.6,13,6.6c0.7,0.1,1.7-0.3,2,0.8c2.2,0,4.3,0,6.5,0c1.4-1.9,5-0.1,5.7-3.2
			c-0.3-0.1-0.5-0.1-0.8-0.2c-10.5-4.7-13.3-15.1-17.8-24.2c-1-2-1.1-4.4-1.1-6.7c0.1-11.8,0.1-23.6,0-35.4
			c-0.1-24-12.9-40.1-34.4-46.9V73.2z"/>
		<path d="M68.9,436.1h-2.5v-3.4c-2.1,2.6-4.8,3.9-7.9,3.9c-2.8,0-5.2-1-7.2-3.1c-1.9-2-2.9-4.5-2.9-7.3c0-2.8,1-5.3,3-7.3
			c2-2,4.4-3,7.2-3c3.2,0,5.9,1.4,7.8,4.1v-11.2h2.5V436.1z M66.6,426.3c0-2.3-0.7-4.1-2.2-5.7c-1.5-1.5-3.3-2.3-5.6-2.3
			c-3,0-5.3,1.3-6.7,4c-0.7,1.3-1.1,2.6-1.1,4c0,1.4,0.4,2.7,1.1,4c0.7,1.3,1.7,2.2,2.9,2.9c1.2,0.7,2.5,1.1,3.9,1.1
			c1.4,0,2.7-0.3,3.9-1c1.2-0.7,2.2-1.6,2.9-2.8C66.2,429.2,66.6,427.8,66.6,426.3z"/>
		<path d="M110.4,426.4H92.7c0,2.2,0.7,4,2.1,5.5c1.4,1.5,3.2,2.3,5.4,2.3c2.1,0,3.9-0.6,5.3-1.9c0.7-0.6,1.4-1.5,2.2-2.8l2.1,1.1
			c-1.3,2.6-3.2,4.3-5.5,5.2c-1.1,0.4-2.4,0.7-3.9,0.7c-3,0-5.4-1-7.3-2.9c-1.9-2-2.9-4.4-2.9-7.4c0-2.5,0.8-4.7,2.3-6.7
			c1.9-2.5,4.5-3.7,7.8-3.7c3.4,0,6,1.3,8,3.8C109.6,421.5,110.3,423.7,110.4,426.4z M107.6,424.2c-0.6-2.5-2-4.2-4-5.2
			c-1.1-0.5-2.2-0.7-3.4-0.7c-1.9,0-3.6,0.6-5,1.9c-1,0.9-1.8,2.2-2.3,4H107.6z"/>
		<path d="M148.1,416.4l-9,19.7h-0.5l-9.1-19.7h2.7l6.6,14.3l6.5-14.3H148.1z"/>
		<path d="M187.7,426.4H170c0,2.2,0.7,4,2.1,5.5c1.4,1.5,3.2,2.3,5.4,2.3c2.1,0,3.9-0.6,5.3-1.9c0.7-0.6,1.4-1.5,2.2-2.8l2.1,1.1
			c-1.3,2.6-3.2,4.3-5.5,5.2c-1.1,0.4-2.4,0.7-3.9,0.7c-3,0-5.4-1-7.3-2.9c-1.9-2-2.9-4.4-2.9-7.4c0-2.5,0.8-4.7,2.3-6.7
			c1.9-2.5,4.5-3.7,7.8-3.7c3.4,0,6,1.3,8,3.8C186.9,421.5,187.6,423.7,187.7,426.4z M184.9,424.2c-0.6-2.5-2-4.2-4-5.2
			c-1.1-0.5-2.2-0.7-3.4-0.7c-1.9,0-3.6,0.6-5,1.9c-1,0.9-1.8,2.2-2.3,4H184.9z"/>
		<path d="M210.9,436.1h-2.6v-27.3h2.6V436.1z"/>
		<path d="M252,426.3c0,2.9-1,5.3-3,7.3c-2,2-4.4,3-7.3,3c-2.9,0-5.3-1-7.3-3c-2-2-3-4.4-3-7.3c0-2.7,0.9-5.1,2.7-7.1
			c2-2.2,4.5-3.3,7.6-3.3c3,0,5.5,1.1,7.5,3.3C251.1,421.2,252,423.5,252,426.3z M249.4,426.3c0-2.2-0.7-4-2.2-5.6
			c-1.5-1.6-3.3-2.4-5.4-2.4c-2.2,0-4,0.8-5.4,2.4c-1.5,1.6-2.2,3.4-2.2,5.6c0,1.4,0.3,2.7,1,3.9c0.7,1.3,1.6,2.2,2.8,2.9
			c1.2,0.7,2.5,1,3.9,1c3,0,5.2-1.3,6.6-3.8C249.1,429.1,249.4,427.8,249.4,426.3z"/>
		<path d="M293.6,426.2c0,2.9-1,5.3-2.9,7.3c-2,2.1-4.4,3.1-7.2,3.1c-3.1,0-5.8-1.3-7.9-3.9v10.6h-2.5v-26.9h2.5v3.6
			c2-2.8,4.6-4.1,7.8-4.1c2.8,0,5.2,1,7.2,3C292.6,420.9,293.6,423.3,293.6,426.2z M291,426.3c0-1.4-0.3-2.7-1-4
			c-0.7-1.3-1.6-2.2-2.8-2.9c-1.2-0.7-2.5-1-3.9-1c-2.2,0-4.1,0.8-5.6,2.3c-1.5,1.5-2.2,3.4-2.2,5.7c0,3.1,1.3,5.4,3.9,6.9
			c1.2,0.7,2.6,1,3.9,1c1.4,0,2.7-0.4,3.9-1.1c1.2-0.7,2.1-1.7,2.8-2.9C290.7,429,291,427.6,291,426.3z"/>
		<path d="M344.2,436.1h-2.6v-10.7c0-1.6-0.1-2.8-0.2-3.5c-0.3-1.3-0.9-2.2-1.8-2.8c-0.7-0.5-1.6-0.7-2.6-0.7
			c-1.3,0-2.4,0.4-3.4,1.1c-1,0.7-1.8,1.7-2.2,2.9c-0.5,1.2-0.7,3.2-0.7,6v7.7h-2.5V426c0-1.8-0.1-3.1-0.2-3.8
			c-0.3-1.4-0.9-2.5-1.8-3.1c-0.7-0.5-1.6-0.8-2.6-0.8c-1.2,0-2.3,0.4-3.4,1.1c-1,0.7-1.7,1.6-2.2,2.8c-0.5,1.2-0.7,3-0.7,5.5v8.3
			h-2.5v-19.7h2.5v3.4c1.8-2.6,4.1-3.9,6.8-3.9c2,0,3.6,0.7,4.8,2c0.5,0.6,1,1.5,1.4,2.7c1.7-3.2,4.2-4.7,7.3-4.7
			c2.9,0,4.9,1.3,5.9,3.9c0.5,1.2,0.8,3.1,0.8,5.5V436.1z"/>
		<path d="M385.1,426.4h-17.7c0,2.2,0.7,4,2.1,5.5c1.4,1.5,3.2,2.3,5.4,2.3c2.1,0,3.9-0.6,5.3-1.9c0.7-0.6,1.4-1.5,2.2-2.8l2.1,1.1
			c-1.3,2.6-3.2,4.3-5.5,5.2c-1.1,0.4-2.4,0.7-3.9,0.7c-3,0-5.4-1-7.3-2.9c-1.9-2-2.9-4.4-2.9-7.4c0-2.5,0.8-4.7,2.3-6.7
			c1.9-2.5,4.5-3.7,7.8-3.7c3.4,0,6,1.3,8,3.8C384.4,421.5,385.1,423.7,385.1,426.4z M382.4,424.2c-0.6-2.5-2-4.2-4-5.2
			c-1.1-0.5-2.2-0.7-3.3-0.7c-1.9,0-3.6,0.6-5,1.9c-1,0.9-1.8,2.2-2.3,4H382.4z"/>
		<path d="M423.4,436.1h-2.5v-9.4c0-2.2-0.1-3.7-0.3-4.5c-0.6-2.6-2.3-3.9-4.9-3.9c-1.5,0-2.9,0.5-4.1,1.5c-1.2,1-2,2.3-2.4,3.8
			c-0.2,1-0.4,2.7-0.4,5.4v7.2h-2.6v-19.7h2.6v3.5c2-2.7,4.5-4,7.4-4c1.4,0,2.7,0.4,3.9,1.1c1.2,0.7,2,1.7,2.6,3
			c0.5,1.3,0.8,3.3,0.8,5.9V436.1z"/>
		<path d="M453.9,418.6h-4v17.5h-2.6v-17.5h-3.5v-2.2h3.5v-7.3h2.6v7.3h4V418.6z"/>
		<path d="M99,389.7h-9l-17.5-24.1l-17.3,24.1h-8.8l21.7-30.1l-19.6-27.2h8.9l15.2,21.2l15.2-21.2h8.9L77,359.6L99,389.7z"/>
		<path d="M163.8,361.2c0,8.4-2.9,15.5-8.6,21.3c-5.7,5.8-12.8,8.7-21.2,8.7s-15.5-2.9-21.3-8.6c-5.7-5.8-8.6-12.9-8.6-21.3
			c0-7.9,2.6-14.8,7.9-20.7c5.8-6.4,13.1-9.6,22-9.6c8.8,0,16.1,3.2,21.9,9.6C161.1,346.3,163.8,353.2,163.8,361.2z M156.2,361.4
			c0-6.3-2.1-11.7-6.4-16.3c-4.3-4.6-9.6-6.9-15.8-6.9c-6.3,0-11.6,2.3-15.8,6.9c-4.3,4.6-6.4,10-6.4,16.3c0,4.1,1,7.9,2.9,11.4
			c2,3.6,4.7,6.4,8.1,8.4c3.4,2,7.2,2.9,11.2,2.9c8.7,0,15.1-3.7,19.3-11.2C155.3,369.4,156.2,365.5,156.2,361.4z"/>
		<path d="M263.3,389.7h-7.6v-31.3c0-4.8-0.2-8.2-0.6-10.1c-0.8-3.6-2.5-6.4-5.2-8.2c-2.1-1.4-4.7-2.1-7.6-2.1c-3.7,0-7,1.1-9.9,3.2
			c-3,2.1-5.1,4.9-6.5,8.4c-1.4,3.5-2,9.3-2,17.6v22.4h-7.4v-29.3c0-5.4-0.2-9-0.5-10.9c-0.7-4.1-2.5-7.2-5.3-9.1
			c-2.1-1.5-4.7-2.2-7.6-2.2c-3.5,0-6.8,1.1-9.8,3.2c-2.8,2.1-5,4.8-6.3,8.2c-1.4,3.5-2.2,8.8-2.2,15.9v24.3h-7.4v-57.3h7.4v9.9
			c5.3-7.6,11.9-11.4,19.7-11.4c5.9,0,10.5,2,14,6c1.6,1.8,3,4.4,4.1,7.8c5-9.2,12.1-13.7,21.2-13.7c8.4,0,14.2,3.8,17.3,11.4
			c1.5,3.6,2.2,9,2.2,16.1V389.7z"/>
		<path d="M338.8,361.2c0,8.3-2.9,15.4-8.6,21.2c-5.7,5.9-12.7,8.8-21,8.8c-9.3,0-16.9-4-22.7-12v10.5h-7.4v-79.4h7.4v32
			c6.1-7.5,13.8-11.3,22.9-11.3c8.3,0,15.2,3,20.9,8.9C336,345.7,338.8,352.8,338.8,361.2z M331.4,360.9c0-4.1-1-7.9-3.1-11.6
			c-2.1-3.7-4.8-6.5-8.3-8.6s-7.2-3.1-11.2-3.1c-4,0-7.9,1-11.5,3.1c-3.6,2-6.4,4.8-8.4,8.3c-1.9,3.5-2.9,7.4-2.9,11.7
			c0,6.6,2.1,12.1,6.4,16.6c4.3,4.5,9.7,6.7,16.2,6.7c8.8,0,15.3-3.8,19.7-11.5C330.3,368.9,331.4,365,331.4,360.9z"/>
		<path d="M409.4,389.7h-7.3v-9.9c-6.2,7.6-13.9,11.3-23,11.3c-8.3,0-15.3-3-20.9-9c-5.6-5.9-8.4-13-8.4-21.3
			c0-8.3,2.9-15.3,8.6-21.2c5.7-5.9,12.7-8.8,21-8.8c9.4,0,17,4,22.8,12v-10.5h7.3V389.7z M402.5,361.4c0-6.6-2.1-12.1-6.4-16.6
			c-4.3-4.5-9.7-6.7-16.2-6.7c-8.8,0-15.3,3.8-19.6,11.5c-2.1,3.6-3.1,7.5-3.1,11.6c0,4.1,1,7.9,3.1,11.6c2.1,3.7,4.8,6.5,8.3,8.6
			c3.5,2.1,7.2,3.1,11.2,3.1c4,0,7.8-1,11.5-3c3.6-2,6.4-4.8,8.3-8.3C401.6,369.6,402.5,365.7,402.5,361.4z"/>
		<path d="M451.6,338.8h-11.7v50.9h-7.5v-50.9h-10.1v-6.4h10.1v-21.3h7.5v21.3h11.7V338.8z"/>
	</g>
</g>
</svg>
