<?xml version="1.0" encoding="utf-8"?>
<!-- Generator: Adobe Illustrator 18.1.1, SVG Export Plug-In . SVG Version: 6.00 Build 0)  -->
<svg version="1.1" id="Lag_1" xmlns="http://www.w3.org/2000/svg" xmlns:xlink="http://www.w3.org/1999/xlink" x="0px" y="0px"
	 viewBox="0 0 500 500" enable-background="new 0 0 500 500" xml:space="preserve">
<g>
	<path fill="#FFFFFF" d="M66,440.3h-2.4v-3.4c-2.1,2.7-4.8,4.1-7.9,4.1c-2.7,0-5.5-1-7.2-3.1c-2.1-2.1-3.1-4.4-3.1-7.5
		c0-2.7,1-5.5,3.1-7.5s4.4-3.1,7.2-3.1c3.4,0,5.8,1.4,7.9,4.1v-11.3H66V440.3z M63.6,430.4c0-2.4-0.7-4.1-2.4-5.8
		c-1.4-1.7-3.4-2.4-5.8-2.4c-3.1,0-5.5,1.4-6.8,4.1c-0.7,1.4-1,2.7-1,4.1c0,1.4,0.3,2.7,1,4.1c0.7,1.4,1.7,2.4,2.7,3.1
		c1,0.7,2.4,1,3.8,1c1.4,0,2.7-0.3,4.1-1c1.4-0.7,2.4-1.7,2.7-2.7C62.3,433.8,63.6,431.7,63.6,430.4z"/>
	<path fill="#FFFFFF" d="M108.1,430.4H90.3c0,2.4,0.7,4.1,2.1,5.5c1.4,1.7,3.1,2.4,5.5,2.4c2.1,0,3.8-0.7,5.5-2.1
		c0.7-0.7,1.4-1.4,2.1-2.7l2.1,1c-1.4,2.7-3.1,4.4-5.5,5.5c-1,0.3-2.4,0.7-4.1,0.7c-3.1,0-5.5-1-7.5-3.1s-3.1-4.4-3.1-7.5
		c0-2.4,0.7-4.8,2.4-6.8c2.1-2.4,4.4-3.8,7.9-3.8s6.2,1.4,8.2,3.8C107.1,425.2,107.8,427.6,108.1,430.4z M105,428.3
		c-0.7-2.4-2.1-4.1-4.1-5.1c-1-0.3-2.1-0.7-3.4-0.7c-2.1,0-3.8,0.7-5.1,2.1c-1,1-1.7,2.4-2.4,4.1H105V428.3z"/>
	<path fill="#FFFFFF" d="M146.1,420.1l-9.2,19.9h-0.3l-9.2-19.9h2.7l6.8,14.7l6.5-14.7H146.1z"/>
	<path fill="#FFFFFF" d="M186.5,430.4h-17.8c0,2.4,0.7,4.1,2.1,5.5c1.4,1.7,3.1,2.4,5.5,2.4c2.1,0,3.8-0.7,5.5-2.1
		c0.7-0.7,1.4-1.4,2.1-2.7l2.1,1c-1.4,2.7-3.1,4.4-5.5,5.5c-1,0.3-2.4,0.7-4.1,0.7c-3.1,0-5.5-1-7.5-3.1c-2.1-2.1-3.1-4.4-3.1-7.5
		c0-2.4,0.7-4.8,2.4-6.8c2.1-2.4,4.4-3.8,7.9-3.8c3.4,0,6.2,1.4,8.2,3.8C185.8,425.2,186.5,427.6,186.5,430.4z M183.8,428.3
		c-0.7-2.4-2.1-4.1-4.1-5.1c-1-0.3-2.1-0.7-3.4-0.7c-2.1,0-3.8,0.7-5.1,2.1c-1,1-1.7,2.4-2.4,4.1h15.1V428.3z"/>
	<path fill="#FFFFFF" d="M210.1,440.3h-2.7v-27.7h2.7V440.3z"/>
	<path fill="#FFFFFF" d="M251.9,430.4c0,3.1-1,5.5-3.1,7.5c-2.1,2.1-4.4,3.1-7.5,3.1c-3.1,0-5.5-1-7.5-3.1c-2.1-2.1-3.1-4.4-3.1-7.5
		c0-2.7,1-5.1,2.7-7.2c2.1-2.4,4.4-3.4,7.5-3.4c3.1,0,5.5,1,7.5,3.4C250.9,424.9,251.9,427.3,251.9,430.4z M249.1,430.4
		c0-2.1-0.7-4.1-2.4-5.8c-1.4-1.7-3.4-2.4-5.5-2.4c-2.1,0-4.1,0.7-5.5,2.4c-1.4,1.7-2.4,3.4-2.4,5.8c0,1.4,0.3,2.7,1,4.1
		c0.7,1.4,1.7,2.4,2.7,3.1c1.4,0.7,2.4,1,3.8,1c3.1,0,5.1-1.4,6.8-3.8C248.8,433.1,249.1,431.7,249.1,430.4z"/>
	<path fill="#FFFFFF" d="M294,430c0,3.1-1,5.5-3.1,7.5c-2.1,2.1-4.4,3.1-7.2,3.1c-3.1,0-5.8-1.4-7.9-4.1v10.6h-2.7v-27.4h2.7v3.8
		c2.1-2.7,4.8-4.1,7.9-4.1c2.7,0,5.5,1,7.2,3.1C293,424.9,294,427.3,294,430z M291.2,430.4c0-1.4-0.3-2.7-1-4.1
		c-0.7-1.4-1.7-2.4-2.7-3.1c-1.4-0.7-2.4-1-4.1-1c-2.4,0-4.1,0.7-5.8,2.4c-1.4,1.7-2.4,3.4-2.4,5.8c0,3.1,1.4,5.5,4.1,6.8
		c1.4,0.7,2.7,1,4.1,1s2.7-0.3,4.1-1c1-0.7,2.1-1.7,2.7-3.1C290.9,433.1,291.2,431.7,291.2,430.4z"/>
	<path fill="#FFFFFF" d="M345.3,440.3h-2.7v-11c0-1.7,0-2.7-0.3-3.4c-0.3-1.4-1-2.1-1.7-2.7c-0.7-0.3-1.7-0.7-2.7-0.7
		c-1.4,0-2.4,0.3-3.4,1c-1,0.7-1.7,1.7-2.4,3.1c-0.3,1.4-0.7,3.4-0.7,6.2v7.9h-2.7v-10.3c0-1.7,0-3.1-0.3-3.8
		c-0.3-1.4-1-2.4-1.7-3.1c-0.7-0.7-1.7-0.7-2.7-0.7c-1.4,0-2.4,0.3-3.4,1c-1,0.7-1.7,1.7-2.1,2.7c-0.3,1.4-0.7,3.1-0.7,5.5v8.6h-2.7
		v-19.9h2.7v3.4c1.7-2.7,4.1-4.1,6.8-4.1c2.1,0,3.8,0.7,4.8,2.1c0.7,0.7,1,1.7,1.4,2.7c1.7-3.1,4.1-4.8,7.5-4.8
		c3.1,0,4.8,1.4,6.2,4.1c0.7,1.4,0.7,3.1,0.7,5.5v10.6H345.3z"/>
	<path fill="#FFFFFF" d="M387.1,430.4h-17.8c0,2.4,0.7,4.1,2.1,5.5c1.4,1.7,3.1,2.4,5.5,2.4c2.1,0,3.8-0.7,5.5-2.1
		c0.7-0.7,1.4-1.4,2.1-2.7l2.1,1c-1.4,2.7-3.1,4.4-5.5,5.5c-1,0.3-2.4,0.7-4.1,0.7c-3.1,0-5.5-1-7.5-3.1c-2.1-2.1-3.1-4.4-3.1-7.5
		c0-2.4,0.7-4.8,2.4-6.8c2.1-2.4,4.4-3.8,7.9-3.8s6.2,1.4,8.2,3.8C386.1,425.2,386.7,427.6,387.1,430.4z M384,428.3
		c-0.7-2.4-2.1-4.1-4.1-5.1c-1-0.3-2.1-0.7-3.4-0.7c-2.1,0-3.8,0.7-5.1,2.1c-1,1-1.7,2.4-2.4,4.1H384V428.3z"/>
	<path fill="#FFFFFF" d="M425.8,440.3H423v-9.6c0-2.4,0-3.8-0.3-4.4c-0.7-2.7-2.4-4.1-5.1-4.1c-1.7,0-3.1,0.3-4.1,1.4
		c-1.4,1-2.1,2.4-2.4,3.8c-0.3,1-0.3,2.7-0.3,5.5v7.2H408v-19.9h2.7v3.4c2.1-2.7,4.4-4.1,7.5-4.1c1.4,0,2.7,0.3,4.1,1
		s2.1,1.7,2.7,3.1c0.7,1.4,0.7,3.4,0.7,6.2C425.8,429.7,425.8,440.3,425.8,440.3z"/>
	<path fill="#FFFFFF" d="M456.9,422.5h-4.1v17.8h-2.7v-17.8h-3.4v-2.4h3.4v-7.5h2.7v7.5h4.1V422.5z"/>
</g>
<g>
	<path fill="#FFFFFF" d="M96.5,393.1h-9.2l-17.8-24.6L52,393.1h-8.9L65,362.6l-19.9-27.7h8.9l15.4,21.6l15.4-21.6h8.9l-19.9,27.7
		L96.5,393.1z"/>
	<path fill="#FFFFFF" d="M162.2,364.3c0,8.6-2.7,15.7-8.6,21.6c-5.8,5.8-13,8.9-21.6,8.9c-8.6,0-15.7-3.1-21.6-8.9
		c-5.8-5.8-8.9-13-8.9-21.6c0-8.2,2.7-15.1,7.9-20.9c5.8-6.5,13.3-9.9,22.2-9.9s16.4,3.1,22.2,9.6
		C159.5,349.3,162.2,356.1,162.2,364.3z M154.7,364.3c0-6.5-2.1-12-6.5-16.4c-4.4-4.8-9.6-6.8-16.1-6.8c-6.5,0-11.6,2.4-16.1,6.8
		c-4.4,4.8-6.5,10.3-6.5,16.4c0,4.1,1,7.9,3.1,11.6c2.1,3.8,4.8,6.5,8.2,8.6c3.4,2.1,7.2,3.1,11.3,3.1c8.9,0,15.4-3.8,19.5-11.3
		C153.7,372.5,154.7,368.4,154.7,364.3z"/>
	<path fill="#FFFFFF" d="M263.2,393.1h-7.9v-31.8c0-4.8-0.3-8.2-0.7-10.3c-0.7-3.8-2.4-6.5-5.1-8.2c-2.1-1.4-4.8-2.1-7.9-2.1
		c-3.8,0-7.2,1-9.9,3.1c-2.7,2.1-5.1,5.1-6.5,8.6c-1.4,3.4-2.1,9.6-2.1,17.8v22.6h-7.5v-29.8c0-5.5-0.3-9.2-0.7-11
		c-0.7-4.1-2.4-7.2-5.5-9.2c-2.1-1.4-4.8-2.4-7.9-2.4c-3.8,0-6.8,1-9.9,3.4c-2.7,2.1-5.1,4.8-6.5,8.2c-1.4,3.4-2.1,8.9-2.1,16.1
		v24.6h-7.5v-58.2h7.5v9.9c5.5-7.9,12-11.6,19.9-11.6c5.8,0,10.6,2.1,14.4,6.2c1.7,1.7,3.1,4.4,4.1,7.9c5.1-9.2,12.3-14,21.6-14
		c8.6,0,14.4,3.8,17.5,11.6c1.4,3.8,2.4,9.2,2.4,16.4v32.2H263.2z"/>
	<path fill="#FFFFFF" d="M339.8,364c0,8.6-3.1,15.7-8.9,21.6c-5.8,5.8-13,8.9-21.2,8.9c-9.6,0-17.1-4.1-22.9-12.3v10.6h-7.5V312h7.5
		v32.5c6.2-7.5,14-11.6,23.3-11.6c8.6,0,15.4,3.1,21.2,8.9C337.1,348.6,339.8,355.8,339.8,364z M332.3,364c0-4.1-1-8.2-3.1-11.6
		c-2.1-3.4-4.8-6.5-8.6-8.6c-3.8-2.1-7.2-3.1-11.3-3.1s-7.9,1-11.6,3.1c-3.8,2.1-6.5,4.8-8.6,8.6c-2.1,3.4-3.1,7.5-3.1,12
		c0,6.5,2.1,12.3,6.5,16.8c4.4,4.4,9.9,6.8,16.4,6.8c8.9,0,15.4-3.8,19.9-11.6C331.3,371.8,332.3,368.1,332.3,364z"/>
	<path fill="#FFFFFF" d="M411.4,393.1h-7.5v-9.9c-6.2,7.5-14,11.6-23.3,11.6c-8.6,0-15.4-3.1-21.2-9.2c-5.8-5.8-8.6-13-8.6-21.6
		c0-8.2,3.1-15.4,8.9-21.6c5.8-5.8,13-8.9,21.2-8.9c9.6,0,17.5,4.1,23.3,12.3v-10.6h7.5v57.8H411.4z M404.5,364.3
		c0-6.5-2.1-12.3-6.5-16.8c-4.4-4.4-9.9-6.8-16.4-6.8c-8.9,0-15.4,3.8-19.9,11.6c-2.1,3.8-3.1,7.5-3.1,11.6c0,4.1,1,8.2,3.1,11.6
		c2.1,3.4,4.8,6.5,8.6,8.6c3.4,2.1,7.2,3.1,11.3,3.1s7.9-1,11.6-3.1c3.8-2.1,6.5-4.8,8.6-8.2C403.5,372.9,404.5,368.8,404.5,364.3z"
		/>
	<path fill="#FFFFFF" d="M454.5,341.4h-12v51.7H435v-51.7h-10.3v-6.5H435v-21.6h7.5v21.6h12V341.4z"/>
</g>
</svg>
