<?xml version="1.0" encoding="utf-8"?>
<!-- Generator: Adobe Illustrator 16.0.0, SVG Export Plug-In . SVG Version: 6.00 Build 0)  -->
<!DOCTYPE svg PUBLIC "-//W3C//DTD SVG 1.1//EN" "http://www.w3.org/Graphics/SVG/1.1/DTD/svg11.dtd">
<svg version="1.1" id="Layer_1" xmlns="http://www.w3.org/2000/svg" xmlns:xlink="http://www.w3.org/1999/xlink" x="0px" y="0px"
	 width="841.889px" height="595.281px" viewBox="0 0 841.889 595.281" enable-background="new 0 0 841.889 595.281"
	 xml:space="preserve">
<g id="Lag_2" display="none">
	<g display="inline">
		<g>
			<path fill="#353938" d="M307.365,475.63V113.699c0-7.858,6.429-14.287,14.286-14.287h200.49c7.858,0,14.287,6.429,14.287,14.287
				V475.63c0,7.857-6.429,14.286-14.287,14.286h-200.49C313.794,489.916,307.365,483.487,307.365,475.63z"/>
			<rect x="331.653" y="134.652" fill="#D6EDE2" width="180.489" height="295.498"/>
			<path fill="#5EB79E" d="M384.156,199.419h-28.692c-2.5,0-4.524-2.023-4.524-4.523v-28.693c0-2.5,2.024-4.523,4.524-4.523h28.692
				c2.5,0,4.524,2.023,4.524,4.523v28.693C388.681,197.395,386.656,199.419,384.156,199.419z"/>
			<path fill="#414953" d="M436.422,199.419H407.73c-2.501,0-4.524-2.023-4.524-4.523v-28.693c0-2.5,2.023-4.523,4.524-4.523h28.692
				c2.5,0,4.523,2.023,4.523,4.523v28.693C440.946,197.395,438.922,199.419,436.422,199.419z"/>
			<path fill="#DA715C" d="M488.688,199.419h-28.692c-2.501,0-4.524-2.023-4.524-4.523v-28.693c0-2.5,2.023-4.523,4.524-4.523
				h28.692c2.5,0,4.523,2.023,4.523,4.523v28.693C493.211,197.395,491.188,199.419,488.688,199.419z"/>
			<path fill="#F3CB62" d="M384.156,254.184h-28.692c-2.5,0-4.524-2.023-4.524-4.523v-28.692c0-2.501,2.024-4.524,4.524-4.524
				h28.692c2.5,0,4.524,2.023,4.524,4.524v28.692C388.681,252.161,386.656,254.184,384.156,254.184z"/>
			<path fill="#3CA5CD" d="M436.422,254.184H407.73c-2.501,0-4.524-2.023-4.524-4.523v-28.692c0-2.501,2.023-4.524,4.524-4.524
				h28.692c2.5,0,4.523,2.023,4.523,4.524v28.692C440.946,252.161,438.922,254.184,436.422,254.184z"/>
			<path fill="#DE823A" d="M488.688,254.184h-28.692c-2.501,0-4.524-2.023-4.524-4.523v-28.692c0-2.501,2.023-4.524,4.524-4.524
				h28.692c2.5,0,4.523,2.023,4.523,4.524v28.692C493.211,252.161,491.188,254.184,488.688,254.184z"/>
			<path fill="#DA715C" d="M384.156,308.832h-28.692c-2.5,0-4.524-2.024-4.524-4.524v-28.692c0-2.5,2.024-4.524,4.524-4.524h28.692
				c2.5,0,4.524,2.024,4.524,4.524v28.692C388.681,306.807,386.656,308.832,384.156,308.832z"/>
			<path fill="#2EAA99" d="M436.422,308.832H407.73c-2.501,0-4.524-2.024-4.524-4.524v-28.692c0-2.5,2.023-4.524,4.524-4.524h28.692
				c2.5,0,4.523,2.024,4.523,4.524v28.692C440.946,306.807,438.922,308.832,436.422,308.832z"/>
			<path fill="#F3CB62" d="M488.688,308.832h-28.692c-2.501,0-4.524-2.024-4.524-4.524v-28.692c0-2.5,2.023-4.524,4.524-4.524
				h28.692c2.5,0,4.523,2.024,4.523,4.524v28.692C493.211,306.807,491.188,308.832,488.688,308.832z"/>
			<polyline opacity="0.38" fill="#9BD4DC" enable-background="new    " points="436.66,134.296 388.681,430.387 512.023,430.387 
				512.261,134.296 			"/>
		</g>
		<circle fill="#212420" cx="422.016" cy="461.223" r="19.525"/>
	</g>
</g>
<g id="Lag_3" display="none">
	<g display="inline">
		<g>
			<path fill="#BBC1C5" d="M600.005,398.719H244.147c-7.857,0-14.287-6.429-14.287-14.286V160.964
				c0-7.857,6.43-14.286,14.287-14.286h355.858c7.857,0,14.286,6.429,14.286,14.286v223.469
				C614.291,392.29,607.863,398.719,600.005,398.719z"/>
			<rect x="264.505" y="173.345" fill="#283C4E" width="315.142" height="198.586"/>
			<rect x="368.798" y="398.719" fill="#7E8A8B" width="103.46" height="35.955"/>
			<path fill="#BBC1C5" d="M264.624,450.032c0.357-7.144,3.81-12.263,8.929-16.191c7.62-5.715,16.192-9.167,25.955-9.167
				c43.693,0,87.387-0.119,131.199-0.119c37.74,0,75.362-0.238,113.104,0.238c10.834,0.118,20.597,4.762,27.858,13.215
				c2.857,3.215,4.524,7.144,4.644,11.905C472.496,450.032,368.679,450.032,264.624,450.032z"/>
			<polyline fill="#31465B" points="461.543,371.931 581.432,173.345 494.997,173.345 375.109,371.931 			"/>
		</g>
		<g>
			<polygon fill="#FFFFFF" points="384.156,329.071 327.724,272.638 384.156,216.325 391.538,223.707 342.606,272.638 
				391.538,321.571 			"/>
		</g>
		<g>
			<polygon fill="#FFFFFF" points="460.114,329.071 452.733,321.571 501.664,272.638 452.733,223.707 460.114,216.325 
				516.547,272.638 			"/>
		</g>
	</g>
</g>
<g id="Lag_4">
	<g>
		<rect x="401.657" y="218.111" fill="#212420" width="38.574" height="146.796"/>
		<circle fill="#D3474B" cx="420.945" cy="185.966" r="54.408"/>
		<polygon fill="#353938" points="378.918,358.836 462.971,358.836 475.353,399.672 366.536,399.672 		"/>
		<path fill="#7E8A8B" d="M274.506,461.7c0.356-18.454,3.571-31.55,8.453-41.551c7.143-14.882,15.239-23.573,24.406-23.573
			c41.074,0,82.148-0.238,123.223-0.238c35.359,0,70.838-0.476,106.198,0.715c10.238,0.356,19.287,12.382,26.192,33.931
			c2.619,8.334,4.286,18.335,4.286,30.717C469.758,461.7,372.37,461.7,274.506,461.7z"/>
	</g>
</g>
</svg>
